<svg width="234" height="234" viewBox="0 0 234 234" fill="none" xmlns="http://www.w3.org/2000/svg">
<rect width="234" height="234" rx="15" fill="#333333"/>
<path d="M164.82 80.714H154.357C161.302 89.927 165.127 101.447 165.127 113.152C165.127 141.495 143.721 164.554 117.407 164.554C91.094 164.554 69.687 141.494 69.687 113.152C69.687 101.445 73.51 89.925 80.454 80.714H70C68.896 80.714 68 79.818 68 78.714V71C68 69.896 68.896 69 70 69H98.551C99.655 69 100.551 69.896 100.551 71V79.593C100.551 80.069 100.382 80.528 100.074 80.889L99.963 81.02C99.851 81.153 99.721 81.27 99.578 81.368C89.752 88.178 83.647 100.356 83.647 113.153C83.647 133.799 98.792 150.595 117.407 150.595C136.021 150.595 151.166 133.798 151.166 113.153C151.166 100.302 145.023 88.098 135.137 81.302C134.594 80.929 134.27 80.313 134.27 79.655V71.002C134.27 69.898 135.166 69.002 136.27 69.002H164.82C165.924 69.002 166.82 69.898 166.82 71.002V78.716C166.82 79.819 165.926 80.714 164.82 80.714Z" fill="#C1B656"/>
<path d="M32.05 195.9C32.05 194.57 32.295 193.333 32.785 192.19C33.2983 191.023 33.9867 190.02 34.85 189.18C35.7367 188.317 36.775 187.64 37.965 187.15C39.155 186.66 40.4267 186.415 41.78 186.415C43.1333 186.415 44.405 186.66 45.595 187.15C46.785 187.64 47.8117 188.317 48.675 189.18C49.5617 190.02 50.25 191.023 50.74 192.19C51.2533 193.333 51.51 194.57 51.51 195.9C51.51 197.23 51.2533 198.478 50.74 199.645C50.25 200.788 49.5617 201.78 48.675 202.62C47.8117 203.46 46.785 204.125 45.595 204.615C44.405 205.105 43.1333 205.35 41.78 205.35C40.4267 205.35 39.155 205.105 37.965 204.615C36.775 204.125 35.7367 203.46 34.85 202.62C33.9867 201.78 33.2983 200.788 32.785 199.645C32.295 198.478 32.05 197.23 32.05 195.9ZM41.78 201.185C43.18 201.185 44.37 200.672 45.35 199.645C46.33 198.618 46.82 197.37 46.82 195.9C46.82 194.407 46.33 193.147 45.35 192.12C44.37 191.093 43.18 190.58 41.78 190.58C40.38 190.58 39.19 191.093 38.21 192.12C37.23 193.147 36.74 194.407 36.74 195.9C36.74 197.37 37.23 198.618 38.21 199.645C39.19 200.672 40.38 201.185 41.78 201.185ZM56.0537 199.855V190.79H52.3087V186.765H56.0537V182.11L60.8487 181.025V186.765H66.0287V190.79H60.8487V198.875C60.8487 199.738 61.0354 200.345 61.4087 200.695C61.782 201.045 62.4354 201.22 63.3687 201.22C63.812 201.22 64.232 201.197 64.6287 201.15C65.0254 201.08 65.457 200.963 65.9237 200.8V204.72C65.4104 204.883 64.792 205.012 64.0687 205.105C63.3454 205.222 62.727 205.28 62.2137 205.28C60.1837 205.28 58.6437 204.825 57.5937 203.915C56.567 202.982 56.0537 201.628 56.0537 199.855ZM76.6318 205.105C75.3485 205.105 74.1351 204.86 72.9918 204.37C71.8718 203.88 70.8918 203.215 70.0518 202.375C69.2351 201.535 68.5818 200.555 68.0918 199.435C67.6251 198.292 67.3918 197.067 67.3918 195.76C67.3918 194.477 67.6368 193.275 68.1268 192.155C68.6168 191.012 69.2818 190.02 70.1218 189.18C70.9618 188.34 71.9535 187.687 73.0968 187.22C74.2401 186.73 75.4651 186.485 76.7718 186.485C77.6818 186.485 78.5451 186.613 79.3618 186.87C80.2018 187.127 80.9835 187.488 81.7068 187.955V186.765H86.4318V205C86.4318 207.403 85.6501 209.258 84.0868 210.565C82.5468 211.872 80.3185 212.525 77.4018 212.525C76.0018 212.525 74.6485 212.385 73.3418 212.105C72.0585 211.825 70.8801 211.417 69.8068 210.88L71.4868 207.135C72.4901 207.625 73.4701 207.987 74.4268 208.22C75.3835 208.477 76.3401 208.605 77.2968 208.605C78.7201 208.605 79.7935 208.29 80.5168 207.66C81.2635 207.053 81.6368 206.155 81.6368 204.965V203.46C80.9135 203.997 80.1201 204.405 79.2568 204.685C78.4168 204.965 77.5418 205.105 76.6318 205.105ZM72.1168 195.76C72.1168 197.23 72.6185 198.478 73.6218 199.505C74.6485 200.532 75.8968 201.045 77.3668 201.045C78.2301 201.045 79.0235 200.905 79.7468 200.625C80.4701 200.322 81.1001 199.913 81.6368 199.4V192.225C81.1235 191.712 80.4935 191.315 79.7468 191.035C79.0001 190.732 78.2185 190.58 77.4018 190.58C75.9318 190.58 74.6835 191.082 73.6568 192.085C72.6301 193.088 72.1168 194.313 72.1168 195.76ZM89.3693 195.9C89.3693 194.57 89.6143 193.333 90.1043 192.19C90.6177 191.023 91.306 190.02 92.1693 189.18C93.056 188.317 94.0943 187.64 95.2843 187.15C96.4743 186.66 97.746 186.415 99.0993 186.415C100.453 186.415 101.724 186.66 102.914 187.15C104.104 187.64 105.131 188.317 105.994 189.18C106.881 190.02 107.569 191.023 108.059 192.19C108.573 193.333 108.829 194.57 108.829 195.9C108.829 197.23 108.573 198.478 108.059 199.645C107.569 200.788 106.881 201.78 105.994 202.62C105.131 203.46 104.104 204.125 102.914 204.615C101.724 205.105 100.453 205.35 99.0993 205.35C97.746 205.35 96.4743 205.105 95.2843 204.615C94.0943 204.125 93.056 203.46 92.1693 202.62C91.306 201.78 90.6177 200.788 90.1043 199.645C89.6143 198.478 89.3693 197.23 89.3693 195.9ZM99.0993 201.185C100.499 201.185 101.689 200.672 102.669 199.645C103.649 198.618 104.139 197.37 104.139 195.9C104.139 194.407 103.649 193.147 102.669 192.12C101.689 191.093 100.499 190.58 99.0993 190.58C97.6993 190.58 96.5093 191.093 95.5293 192.12C94.5493 193.147 94.0593 194.407 94.0593 195.9C94.0593 197.37 94.5493 198.618 95.5293 199.645C96.5093 200.672 97.6993 201.185 99.0993 201.185ZM117.043 205L109.203 186.765H114.418L119.423 198.91L124.393 186.765H129.503L121.663 205H117.043ZM129.872 195.9C129.872 194.57 130.117 193.333 130.607 192.19C131.121 191.023 131.809 190.02 132.672 189.18C133.559 188.317 134.597 187.64 135.787 187.15C136.977 186.66 138.249 186.415 139.602 186.415C140.956 186.415 142.227 186.66 143.417 187.15C144.607 187.64 145.634 188.317 146.497 189.18C147.384 190.02 148.072 191.023 148.562 192.19C149.076 193.333 149.332 194.57 149.332 195.9C149.332 197.23 149.076 198.478 148.562 199.645C148.072 200.788 147.384 201.78 146.497 202.62C145.634 203.46 144.607 204.125 143.417 204.615C142.227 205.105 140.956 205.35 139.602 205.35C138.249 205.35 136.977 205.105 135.787 204.615C134.597 204.125 133.559 203.46 132.672 202.62C131.809 201.78 131.121 200.788 130.607 199.645C130.117 198.478 129.872 197.23 129.872 195.9ZM139.602 201.185C141.002 201.185 142.192 200.672 143.172 199.645C144.152 198.618 144.642 197.37 144.642 195.9C144.642 194.407 144.152 193.147 143.172 192.12C142.192 191.093 141.002 190.58 139.602 190.58C138.202 190.58 137.012 191.093 136.032 192.12C135.052 193.147 134.562 194.407 134.562 195.9C134.562 197.37 135.052 198.618 136.032 199.645C137.012 200.672 138.202 201.185 139.602 201.185ZM152.28 205V186.765H157.075V188.76C157.658 187.967 158.358 187.372 159.175 186.975C160.015 186.555 160.936 186.345 161.94 186.345C162.406 186.368 162.791 186.415 163.095 186.485C163.421 186.532 163.701 186.625 163.935 186.765V190.965C163.585 190.802 163.2 190.685 162.78 190.615C162.36 190.522 161.928 190.475 161.485 190.475C160.551 190.475 159.688 190.708 158.895 191.175C158.125 191.642 157.518 192.318 157.075 193.205V205H152.28ZM166.533 205V180.5L171.328 179.45V194.465L179.203 186.765H184.628L176.088 195.13L185.153 205H179.028L171.328 196.67V205H166.533ZM188.805 184.595C188.058 184.595 187.417 184.327 186.88 183.79C186.343 183.253 186.075 182.612 186.075 181.865C186.075 181.118 186.343 180.477 186.88 179.94C187.417 179.403 188.058 179.135 188.805 179.135C189.552 179.135 190.193 179.403 190.73 179.94C191.267 180.477 191.535 181.118 191.535 181.865C191.535 182.612 191.267 183.253 190.73 183.79C190.193 184.327 189.552 184.595 188.805 184.595ZM191.22 186.765V205H186.425V186.765H191.22Z" fill="#C1B656"/>
</svg>
