<svg width="99" height="96" viewBox="0 0 99 96" fill="none" xmlns="http://www.w3.org/2000/svg">
<path d="M96.82 11.714H86.357C93.302 20.927 97.127 32.447 97.127 44.152C97.127 72.495 75.721 95.554 49.407 95.554C23.094 95.554 1.687 72.494 1.687 44.152C1.687 32.445 5.51 20.925 12.454 11.714H2C0.896 11.714 0 10.818 0 9.714V2C0 0.896 0.896 0 2 0H30.551C31.655 0 32.551 0.896 32.551 2V10.593C32.551 11.069 32.382 11.528 32.074 11.889L31.963 12.02C31.851 12.153 31.721 12.27 31.578 12.368C21.752 19.178 15.647 31.356 15.647 44.153C15.647 64.799 30.792 81.595 49.407 81.595C68.021 81.595 83.166 64.798 83.166 44.153C83.166 31.302 77.023 19.098 67.137 12.302C66.594 11.929 66.27 11.313 66.27 10.655V2.00201C66.27 0.898007 67.166 0.00200653 68.27 0.00200653H96.82C97.924 0.00200653 98.82 0.898007 98.82 2.00201V9.716C98.82 10.819 97.926 11.714 96.82 11.714Z" fill="#C1B656"/>
</svg>
